<svg xmlns="http://www.w3.org/2000/svg" viewBox="0 0 420 310"><defs><linearGradient id="g" x1="0" x2="0" y1="0" y2="1"><stop stop-color="#fff48d"/><stop offset=".34" stop-color="#ffc400"/><stop offset="1" stop-color="#e66e00"/></linearGradient><filter id="s"><feDropShadow dx="0" dy="12" stdDeviation="4" flood-color="#000" flood-opacity=".7"/></filter></defs><g filter="url(#s)" stroke="#4e2100" stroke-width="13" stroke-linejoin="round"><path fill="url(#g)" d="M27 270 48 78l65-16 34 71 34-71 62 16 22 192-50 12-10-115-35 75h-44l-36-75-10 115z"/><path fill="url(#g)" d="M235 271 250 67l58 10 39 73 39-73 24 194-53 11-7-100-25 55h-28l-26-55-7 100z"/><path fill="#ffe600" d="m101 67 14-43 24 25 23-38 21 37 29-24 7 43-42-10-35 10z"/></g><text x="210" y="291" text-anchor="middle" font-family="Arial Black,Arial" font-size="26" fill="#ffe66d" stroke="#522000" stroke-width="3">DISASTERMC</text></svg>
